<svg xmlns="http://www.w3.org/2000/svg" viewBox="0 0 1920 1080"><g transform="
          rotate(0 960 540) 
          translate(-0 -0)
          scale(1)
        "><rect width="1920" height="1080" fill="rgb(32, 32, 32)"></rect><g transform="translate(0, 0)"><path fill="rgb(33, 46, 36)" fill-opacity="1" d="M0,88.236L10.323,87.519C20.645,86.802,41.29,85.368,61.935,85.145C82.581,84.923,103.226,85.912,123.871,86.024C144.516,86.135,165.161,85.368,185.806,75.796C206.452,66.223,227.097,47.846,247.742,46.294C268.387,44.742,289.032,60.015,309.677,55.334C330.323,50.653,350.968,26.017,371.613,24.62C392.258,23.223,412.903,45.064,433.548,50.505C454.194,55.945,474.839,44.984,495.484,34.839C516.129,24.694,536.774,15.364,557.419,20.18C578.065,24.996,598.71,43.957,619.355,47.376C640,50.795,660.645,38.672,681.29,32.604C701.935,26.535,722.581,26.523,743.226,35.319C763.871,44.115,784.516,61.719,805.161,71.174C825.806,80.629,846.452,81.935,867.097,71.169C887.742,60.403,908.387,37.566,929.032,28.156C949.677,18.746,970.323,22.763,990.968,31.568C1011.613,40.373,1032.258,53.966,1052.903,63.582C1073.548,73.199,1094.194,78.838,1114.839,75.129C1135.484,71.42,1156.129,58.363,1176.774,45.078C1197.419,31.793,1218.065,18.281,1238.71,10.841C1259.355,3.402,1280,2.035,1300.645,10.27C1321.29,18.504,1341.935,36.339,1362.581,41.946C1383.226,47.552,1403.871,40.928,1424.516,34.044C1445.161,27.16,1465.806,20.016,1486.452,18.064C1507.097,16.112,1527.742,19.353,1548.387,21.652C1569.032,23.951,1589.677,25.308,1610.323,33.264C1630.968,41.22,1651.613,55.775,1672.258,65.688C1692.903,75.6,1713.548,80.869,1734.194,84.03C1754.839,87.19,1775.484,88.242,1796.129,82.156C1816.774,76.07,1837.419,62.845,1858.065,52.324C1878.71,41.802,1899.355,33.983,1909.677,30.074L1920,26.165L1920,1080L1909.677,1080C1899.355,1080,1878.71,1080,1858.065,1080C1837.419,1080,1816.774,1080,1796.129,1080C1775.484,1080,1754.839,1080,1734.194,1080C1713.548,1080,1692.903,1080,1672.258,1080C1651.613,1080,1630.968,1080,1610.323,1080C1589.677,1080,1569.032,1080,1548.387,1080C1527.742,1080,1507.097,1080,1486.452,1080C1465.806,1080,1445.161,1080,1424.516,1080C1403.871,1080,1383.226,1080,1362.581,1080C1341.935,1080,1321.29,1080,1300.645,1080C1280,1080,1259.355,1080,1238.71,1080C1218.065,1080,1197.419,1080,1176.774,1080C1156.129,1080,1135.484,1080,1114.839,1080C1094.194,1080,1073.548,1080,1052.903,1080C1032.258,1080,1011.613,1080,990.968,1080C970.323,1080,949.677,1080,929.032,1080C908.387,1080,887.742,1080,867.097,1080C846.452,1080,825.806,1080,805.161,1080C784.516,1080,763.871,1080,743.226,1080C722.581,1080,701.935,1080,681.29,1080C660.645,1080,640,1080,619.355,1080C598.71,1080,578.065,1080,557.419,1080C536.774,1080,516.129,1080,495.484,1080C474.839,1080,454.194,1080,433.548,1080C412.903,1080,392.258,1080,371.613,1080C350.968,1080,330.323,1080,309.677,1080C289.032,1080,268.387,1080,247.742,1080C227.097,1080,206.452,1080,185.806,1080C165.161,1080,144.516,1080,123.871,1080C103.226,1080,82.581,1080,61.935,1080C41.29,1080,20.645,1080,10.323,1080L0,1080Z"></path></g><g transform="translate(0, 90)"><path fill="rgb(35, 59, 40)" fill-opacity="1" d="M0,8.676L10.323,20.204C20.645,31.731,41.29,54.786,61.935,68.042C82.581,81.297,103.226,84.753,123.871,86.604C144.516,88.454,165.161,88.699,185.806,83.57C206.452,78.441,227.097,67.938,247.742,61.379C268.387,54.82,289.032,52.206,309.677,46.865C330.323,41.523,350.968,33.454,371.613,39.827C392.258,46.201,412.903,67.016,433.548,75.697C454.194,84.377,474.839,80.923,495.484,79.941C516.129,78.959,536.774,80.449,557.419,78.72C578.065,76.991,598.71,72.042,619.355,59.697C640,47.352,660.645,27.61,681.29,29.975C701.935,32.339,722.581,56.808,743.226,62.368C763.871,67.927,784.516,54.577,805.161,43.224C825.806,31.872,846.452,22.517,867.097,22.324C887.742,22.132,908.387,31.1,929.032,43.598C949.677,56.096,970.323,72.124,990.968,73.085C1011.613,74.046,1032.258,59.941,1052.903,51.63C1073.548,43.318,1094.194,40.8,1114.839,34.108C1135.484,27.415,1156.129,16.548,1176.774,10.986C1197.419,5.424,1218.065,5.167,1238.71,10.059C1259.355,14.952,1280,24.995,1300.645,38.606C1321.29,52.217,1341.935,69.396,1362.581,75.221C1383.226,81.046,1403.871,75.517,1424.516,63.138C1445.161,50.758,1465.806,31.527,1486.452,33.894C1507.097,36.26,1527.742,60.222,1548.387,63.966C1569.032,67.709,1589.677,51.232,1610.323,47.371C1630.968,43.509,1651.613,52.263,1672.258,52.802C1692.903,53.341,1713.548,45.666,1734.194,46.568C1754.839,47.469,1775.484,56.947,1796.129,61.557C1816.774,66.168,1837.419,65.911,1858.065,61.489C1878.71,57.067,1899.355,48.48,1909.677,44.187L1920,39.893L1920,990L1909.677,990C1899.355,990,1878.71,990,1858.065,990C1837.419,990,1816.774,990,1796.129,990C1775.484,990,1754.839,990,1734.194,990C1713.548,990,1692.903,990,1672.258,990C1651.613,990,1630.968,990,1610.323,990C1589.677,990,1569.032,990,1548.387,990C1527.742,990,1507.097,990,1486.452,990C1465.806,990,1445.161,990,1424.516,990C1403.871,990,1383.226,990,1362.581,990C1341.935,990,1321.29,990,1300.645,990C1280,990,1259.355,990,1238.71,990C1218.065,990,1197.419,990,1176.774,990C1156.129,990,1135.484,990,1114.839,990C1094.194,990,1073.548,990,1052.903,990C1032.258,990,1011.613,990,990.968,990C970.323,990,949.677,990,929.032,990C908.387,990,887.742,990,867.097,990C846.452,990,825.806,990,805.161,990C784.516,990,763.871,990,743.226,990C722.581,990,701.935,990,681.29,990C660.645,990,640,990,619.355,990C598.71,990,578.065,990,557.419,990C536.774,990,516.129,990,495.484,990C474.839,990,454.194,990,433.548,990C412.903,990,392.258,990,371.613,990C350.968,990,330.323,990,309.677,990C289.032,990,268.387,990,247.742,990C227.097,990,206.452,990,185.806,990C165.161,990,144.516,990,123.871,990C103.226,990,82.581,990,61.935,990C41.29,990,20.645,990,10.323,990L0,990Z"></path></g><g transform="translate(0, 180)"><path fill="rgb(36, 71, 43)" fill-opacity="1" d="M0,50.787L10.323,50.746C20.645,50.705,41.29,50.624,61.935,49.741C82.581,48.858,103.226,47.173,123.871,45.694C144.516,44.216,165.161,42.943,185.806,36.89C206.452,30.836,227.097,20.001,247.742,13.531C268.387,7.061,289.032,4.956,309.677,7.962C330.323,10.968,350.968,19.086,371.613,24.189C392.258,29.292,412.903,31.38,433.548,31.854C454.194,32.327,474.839,31.185,495.484,33.853C516.129,36.521,536.774,42.998,557.419,47.666C578.065,52.334,598.71,55.191,619.355,59.665C640,64.139,660.645,70.229,681.29,69.189C701.935,68.149,722.581,59.979,743.226,51.531C763.871,43.083,784.516,34.357,805.161,34.575C825.806,34.792,846.452,43.954,867.097,42.498C887.742,41.043,908.387,28.972,929.032,32.248C949.677,35.524,970.323,54.148,990.968,57.804C1011.613,61.459,1032.258,50.147,1052.903,52.667C1073.548,55.187,1094.194,71.54,1114.839,78.433C1135.484,85.325,1156.129,82.756,1176.774,75.545C1197.419,68.334,1218.065,56.481,1238.71,55.754C1259.355,55.026,1280,65.425,1300.645,64.571C1321.29,63.717,1341.935,51.609,1362.581,46.631C1383.226,41.652,1403.871,43.803,1424.516,39.093C1445.161,34.384,1465.806,22.815,1486.452,24.697C1507.097,26.579,1527.742,41.913,1548.387,40.059C1569.032,38.204,1589.677,19.162,1610.323,16.242C1630.968,13.322,1651.613,26.523,1672.258,38.731C1692.903,50.938,1713.548,62.152,1734.194,55.703C1754.839,49.254,1775.484,25.142,1796.129,23.803C1816.774,22.464,1837.419,43.899,1858.065,47.286C1878.71,50.674,1899.355,36.014,1909.677,28.685L1920,21.355L1920,900L1909.677,900C1899.355,900,1878.71,900,1858.065,900C1837.419,900,1816.774,900,1796.129,900C1775.484,900,1754.839,900,1734.194,900C1713.548,900,1692.903,900,1672.258,900C1651.613,900,1630.968,900,1610.323,900C1589.677,900,1569.032,900,1548.387,900C1527.742,900,1507.097,900,1486.452,900C1465.806,900,1445.161,900,1424.516,900C1403.871,900,1383.226,900,1362.581,900C1341.935,900,1321.29,900,1300.645,900C1280,900,1259.355,900,1238.71,900C1218.065,900,1197.419,900,1176.774,900C1156.129,900,1135.484,900,1114.839,900C1094.194,900,1073.548,900,1052.903,900C1032.258,900,1011.613,900,990.968,900C970.323,900,949.677,900,929.032,900C908.387,900,887.742,900,867.097,900C846.452,900,825.806,900,805.161,900C784.516,900,763.871,900,743.226,900C722.581,900,701.935,900,681.29,900C660.645,900,640,900,619.355,900C598.71,900,578.065,900,557.419,900C536.774,900,516.129,900,495.484,900C474.839,900,454.194,900,433.548,900C412.903,900,392.258,900,371.613,900C350.968,900,330.323,900,309.677,900C289.032,900,268.387,900,247.742,900C227.097,900,206.452,900,185.806,900C165.161,900,144.516,900,123.871,900C103.226,900,82.581,900,61.935,900C41.29,900,20.645,900,10.323,900L0,900Z"></path></g><g transform="translate(0, 270)"><path fill="rgb(37, 80, 46)" fill-opacity="1" d="M0,42.421L10.323,40.997C20.645,39.572,41.29,36.722,61.935,42.123C82.581,47.523,103.226,61.173,123.871,56.722C144.516,52.272,165.161,29.72,185.806,28.33C206.452,26.939,227.097,46.71,247.742,53.171C268.387,59.632,289.032,52.784,309.677,55.251C330.323,57.719,350.968,69.502,371.613,69.665C392.258,69.829,412.903,58.372,433.548,45.485C454.194,32.598,474.839,18.28,495.484,17.163C516.129,16.045,536.774,28.128,557.419,40.598C578.065,53.068,598.71,65.926,619.355,62.288C640,58.65,660.645,38.516,681.29,28.791C701.935,19.066,722.581,19.75,743.226,27.902C763.871,36.053,784.516,51.672,805.161,61.998C825.806,72.324,846.452,77.356,867.097,73.508C887.742,69.659,908.387,56.929,929.032,55.984C949.677,55.038,970.323,65.877,990.968,65.567C1011.613,65.256,1032.258,53.797,1052.903,52.944C1073.548,52.09,1094.194,61.844,1114.839,64.18C1135.484,66.517,1156.129,61.436,1176.774,54.436C1197.419,47.435,1218.065,38.515,1238.71,33.371C1259.355,28.226,1280,26.857,1300.645,22.636C1321.29,18.415,1341.935,11.341,1362.581,19.936C1383.226,28.532,1403.871,52.796,1424.516,66.334C1445.161,79.872,1465.806,82.685,1486.452,72.291C1507.097,61.897,1527.742,38.295,1548.387,26.3C1569.032,14.305,1589.677,13.916,1610.323,12.911C1630.968,11.906,1651.613,10.285,1672.258,12.608C1692.903,14.93,1713.548,21.195,1734.194,24.982C1754.839,28.769,1775.484,30.076,1796.129,28.867C1816.774,27.657,1837.419,23.93,1858.065,21.774C1878.71,19.618,1899.355,19.032,1909.677,18.739L1920,18.446L1920,810L1909.677,810C1899.355,810,1878.71,810,1858.065,810C1837.419,810,1816.774,810,1796.129,810C1775.484,810,1754.839,810,1734.194,810C1713.548,810,1692.903,810,1672.258,810C1651.613,810,1630.968,810,1610.323,810C1589.677,810,1569.032,810,1548.387,810C1527.742,810,1507.097,810,1486.452,810C1465.806,810,1445.161,810,1424.516,810C1403.871,810,1383.226,810,1362.581,810C1341.935,810,1321.29,810,1300.645,810C1280,810,1259.355,810,1238.71,810C1218.065,810,1197.419,810,1176.774,810C1156.129,810,1135.484,810,1114.839,810C1094.194,810,1073.548,810,1052.903,810C1032.258,810,1011.613,810,990.968,810C970.323,810,949.677,810,929.032,810C908.387,810,887.742,810,867.097,810C846.452,810,825.806,810,805.161,810C784.516,810,763.871,810,743.226,810C722.581,810,701.935,810,681.29,810C660.645,810,640,810,619.355,810C598.71,810,578.065,810,557.419,810C536.774,810,516.129,810,495.484,810C474.839,810,454.194,810,433.548,810C412.903,810,392.258,810,371.613,810C350.968,810,330.323,810,309.677,810C289.032,810,268.387,810,247.742,810C227.097,810,206.452,810,185.806,810C165.161,810,144.516,810,123.871,810C103.226,810,82.581,810,61.935,810C41.29,810,20.645,810,10.323,810L0,810Z"></path></g><g transform="translate(0, 360)"><path fill="rgb(37, 86, 47)" fill-opacity="1" d="M0,42.97L10.323,45.679C20.645,48.387,41.29,53.804,61.935,61.504C82.581,69.204,103.226,79.188,123.871,71.721C144.516,64.254,165.161,39.338,185.806,26.966C206.452,14.593,227.097,14.766,247.742,15.211C268.387,15.655,289.032,16.372,309.677,26.031C330.323,35.69,350.968,54.291,371.613,59.86C392.258,65.429,412.903,57.966,433.548,54.465C454.194,50.965,474.839,51.427,495.484,47.725C516.129,44.022,536.774,36.155,557.419,41.854C578.065,47.553,598.71,66.817,619.355,62.137C640,57.458,660.645,28.834,681.29,20.042C701.935,11.25,722.581,22.29,743.226,23.242C763.871,24.193,784.516,15.057,805.161,19.418C825.806,23.78,846.452,41.639,867.097,47.613C887.742,53.587,908.387,47.675,929.032,39.081C949.677,30.488,970.323,19.212,990.968,20.007C1011.613,20.803,1032.258,33.669,1052.903,38.902C1073.548,44.135,1094.194,41.735,1114.839,46.086C1135.484,50.437,1156.129,61.539,1176.774,60.046C1197.419,58.553,1218.065,44.465,1238.71,38.647C1259.355,32.83,1280,35.283,1300.645,42.661C1321.29,50.039,1341.935,62.342,1362.581,58.207C1383.226,54.072,1403.871,33.5,1424.516,26.278C1445.161,19.056,1465.806,25.184,1486.452,33.327C1507.097,41.469,1527.742,51.626,1548.387,59.776C1569.032,67.925,1589.677,74.067,1610.323,76.745C1630.968,79.424,1651.613,78.64,1672.258,65.546C1692.903,52.452,1713.548,27.048,1734.194,18.914C1754.839,10.781,1775.484,19.919,1796.129,25.689C1816.774,31.459,1837.419,33.861,1858.065,35.396C1878.71,36.931,1899.355,37.598,1909.677,37.932L1920,38.266L1920,720L1909.677,720C1899.355,720,1878.71,720,1858.065,720C1837.419,720,1816.774,720,1796.129,720C1775.484,720,1754.839,720,1734.194,720C1713.548,720,1692.903,720,1672.258,720C1651.613,720,1630.968,720,1610.323,720C1589.677,720,1569.032,720,1548.387,720C1527.742,720,1507.097,720,1486.452,720C1465.806,720,1445.161,720,1424.516,720C1403.871,720,1383.226,720,1362.581,720C1341.935,720,1321.29,720,1300.645,720C1280,720,1259.355,720,1238.71,720C1218.065,720,1197.419,720,1176.774,720C1156.129,720,1135.484,720,1114.839,720C1094.194,720,1073.548,720,1052.903,720C1032.258,720,1011.613,720,990.968,720C970.323,720,949.677,720,929.032,720C908.387,720,887.742,720,867.097,720C846.452,720,825.806,720,805.161,720C784.516,720,763.871,720,743.226,720C722.581,720,701.935,720,681.29,720C660.645,720,640,720,619.355,720C598.71,720,578.065,720,557.419,720C536.774,720,516.129,720,495.484,720C474.839,720,454.194,720,433.548,720C412.903,720,392.258,720,371.613,720C350.968,720,330.323,720,309.677,720C289.032,720,268.387,720,247.742,720C227.097,720,206.452,720,185.806,720C165.161,720,144.516,720,123.871,720C103.226,720,82.581,720,61.935,720C41.29,720,20.645,720,10.323,720L0,720Z"></path></g><g transform="translate(0, 450)"><path fill="rgb(37, 89, 48)" fill-opacity="1" d="M0,81.465L10.323,73.948C20.645,66.432,41.29,51.398,61.935,48.481C82.581,45.564,103.226,54.765,123.871,55.607C144.516,56.449,165.161,48.933,185.806,41.049C206.452,33.166,227.097,24.915,247.742,29.89C268.387,34.866,289.032,53.069,309.677,61.819C330.323,70.569,350.968,69.866,371.613,62.814C392.258,55.762,412.903,42.361,433.548,38.305C454.194,34.249,474.839,39.538,495.484,38.167C516.129,36.796,536.774,28.767,557.419,34.644C578.065,40.52,598.71,60.304,619.355,69.656C640,79.009,660.645,77.93,681.29,71.547C701.935,65.165,722.581,53.479,743.226,53.651C763.871,53.822,784.516,65.852,805.161,68.38C825.806,70.908,846.452,63.934,867.097,55.902C887.742,47.869,908.387,38.777,929.032,43.623C949.677,48.468,970.323,67.25,990.968,68.567C1011.613,69.884,1032.258,53.736,1052.903,48.071C1073.548,42.406,1094.194,47.225,1114.839,45.503C1135.484,43.782,1156.129,35.52,1176.774,41.454C1197.419,47.387,1218.065,67.516,1238.71,74.627C1259.355,81.739,1280,75.833,1300.645,66.5C1321.29,57.166,1341.935,44.406,1362.581,39.234C1383.226,34.063,1403.871,36.481,1424.516,38.517C1445.161,40.554,1465.806,42.209,1486.452,44.81C1507.097,47.411,1527.742,50.959,1548.387,51.178C1569.032,51.396,1589.677,48.284,1610.323,45.302C1630.968,42.319,1651.613,39.465,1672.258,43.402C1692.903,47.338,1713.548,58.065,1734.194,60.875C1754.839,63.684,1775.484,58.576,1796.129,49.653C1816.774,40.731,1837.419,27.994,1858.065,24.251C1878.71,20.507,1899.355,25.756,1909.677,28.38L1920,31.004L1920,630L1909.677,630C1899.355,630,1878.71,630,1858.065,630C1837.419,630,1816.774,630,1796.129,630C1775.484,630,1754.839,630,1734.194,630C1713.548,630,1692.903,630,1672.258,630C1651.613,630,1630.968,630,1610.323,630C1589.677,630,1569.032,630,1548.387,630C1527.742,630,1507.097,630,1486.452,630C1465.806,630,1445.161,630,1424.516,630C1403.871,630,1383.226,630,1362.581,630C1341.935,630,1321.29,630,1300.645,630C1280,630,1259.355,630,1238.71,630C1218.065,630,1197.419,630,1176.774,630C1156.129,630,1135.484,630,1114.839,630C1094.194,630,1073.548,630,1052.903,630C1032.258,630,1011.613,630,990.968,630C970.323,630,949.677,630,929.032,630C908.387,630,887.742,630,867.097,630C846.452,630,825.806,630,805.161,630C784.516,630,763.871,630,743.226,630C722.581,630,701.935,630,681.29,630C660.645,630,640,630,619.355,630C598.71,630,578.065,630,557.419,630C536.774,630,516.129,630,495.484,630C474.839,630,454.194,630,433.548,630C412.903,630,392.258,630,371.613,630C350.968,630,330.323,630,309.677,630C289.032,630,268.387,630,247.742,630C227.097,630,206.452,630,185.806,630C165.161,630,144.516,630,123.871,630C103.226,630,82.581,630,61.935,630C41.29,630,20.645,630,10.323,630L0,630Z"></path></g><g transform="translate(0, 540)"><path fill="rgb(37, 86, 47)" fill-opacity="1" d="M0,35.388L10.323,37.107C20.645,38.826,41.29,42.264,61.935,41.061C82.581,39.859,103.226,34.015,123.871,31.233C144.516,28.451,165.161,28.73,185.806,29.662C206.452,30.594,227.097,32.179,247.742,32.204C268.387,32.229,289.032,30.694,309.677,34.718C330.323,38.742,350.968,48.325,371.613,46.193C392.258,44.062,412.903,30.214,433.548,25.257C454.194,20.299,474.839,24.232,495.484,30.746C516.129,37.26,536.774,46.356,557.419,45.885C578.065,45.414,598.71,35.376,619.355,30.688C640,26,660.645,26.662,681.29,35.244C701.935,43.826,722.581,60.329,743.226,60.95C763.871,61.57,784.516,46.308,805.161,34.566C825.806,22.823,846.452,14.6,867.097,16.257C887.742,17.914,908.387,29.452,929.032,39.06C949.677,48.669,970.323,56.349,990.968,64.206C1011.613,72.063,1032.258,80.097,1052.903,71.211C1073.548,62.326,1094.194,36.521,1114.839,36.151C1135.484,35.782,1156.129,60.847,1176.774,66.867C1197.419,72.886,1218.065,59.861,1238.71,47.894C1259.355,35.927,1280,25.019,1300.645,18.291C1321.29,11.563,1341.935,9.015,1362.581,12.036C1383.226,15.056,1403.871,23.644,1424.516,36.597C1445.161,49.55,1465.806,66.867,1486.452,61.496C1507.097,56.125,1527.742,28.066,1548.387,16.719C1569.032,5.373,1589.677,10.74,1610.323,22.952C1630.968,35.164,1651.613,54.222,1672.258,64.972C1692.903,75.723,1713.548,78.165,1734.194,73.003C1754.839,67.84,1775.484,55.073,1796.129,46.902C1816.774,38.73,1837.419,35.155,1858.065,28.282C1878.71,21.409,1899.355,11.238,1909.677,6.153L1920,1.068L1920,540L1909.677,540C1899.355,540,1878.71,540,1858.065,540C1837.419,540,1816.774,540,1796.129,540C1775.484,540,1754.839,540,1734.194,540C1713.548,540,1692.903,540,1672.258,540C1651.613,540,1630.968,540,1610.323,540C1589.677,540,1569.032,540,1548.387,540C1527.742,540,1507.097,540,1486.452,540C1465.806,540,1445.161,540,1424.516,540C1403.871,540,1383.226,540,1362.581,540C1341.935,540,1321.29,540,1300.645,540C1280,540,1259.355,540,1238.71,540C1218.065,540,1197.419,540,1176.774,540C1156.129,540,1135.484,540,1114.839,540C1094.194,540,1073.548,540,1052.903,540C1032.258,540,1011.613,540,990.968,540C970.323,540,949.677,540,929.032,540C908.387,540,887.742,540,867.097,540C846.452,540,825.806,540,805.161,540C784.516,540,763.871,540,743.226,540C722.581,540,701.935,540,681.29,540C660.645,540,640,540,619.355,540C598.71,540,578.065,540,557.419,540C536.774,540,516.129,540,495.484,540C474.839,540,454.194,540,433.548,540C412.903,540,392.258,540,371.613,540C350.968,540,330.323,540,309.677,540C289.032,540,268.387,540,247.742,540C227.097,540,206.452,540,185.806,540C165.161,540,144.516,540,123.871,540C103.226,540,82.581,540,61.935,540C41.29,540,20.645,540,10.323,540L0,540Z"></path></g><g transform="translate(0, 630)"><path fill="rgb(37, 80, 46)" fill-opacity="1" d="M0,48.923L10.323,40.984C20.645,33.045,41.29,17.167,61.935,23.734C82.581,30.301,103.226,59.313,123.871,59.758C144.516,60.203,165.161,32.08,185.806,23.87C206.452,15.66,227.097,27.363,247.742,32.753C268.387,38.144,289.032,37.223,309.677,35.945C330.323,34.666,350.968,33.031,371.613,31.676C392.258,30.321,412.903,29.246,433.548,36.035C454.194,42.824,474.839,57.478,495.484,54.132C516.129,50.787,536.774,29.444,557.419,26.542C578.065,23.64,598.71,39.18,619.355,49.212C640,59.243,660.645,63.767,681.29,58.465C701.935,53.162,722.581,38.034,743.226,29.977C763.871,21.919,784.516,20.933,805.161,21.282C825.806,21.631,846.452,23.316,867.097,22.261C887.742,21.206,908.387,17.41,929.032,17.7C949.677,17.99,970.323,22.366,990.968,33.349C1011.613,44.332,1032.258,61.923,1052.903,69.219C1073.548,76.516,1094.194,73.518,1114.839,64.398C1135.484,55.278,1156.129,40.036,1176.774,37.413C1197.419,34.79,1218.065,44.785,1238.71,46.893C1259.355,49,1280,43.219,1300.645,43.109C1321.29,43,1341.935,48.563,1362.581,53.878C1383.226,59.193,1403.871,64.262,1424.516,69.419C1445.161,74.576,1465.806,79.822,1486.452,76.566C1507.097,73.311,1527.742,61.555,1548.387,47.938C1569.032,34.321,1589.677,18.843,1610.323,20.949C1630.968,23.055,1651.613,42.745,1672.258,56.711C1692.903,70.677,1713.548,78.919,1734.194,72.797C1754.839,66.675,1775.484,46.188,1796.129,42.559C1816.774,38.931,1837.419,52.159,1858.065,56.706C1878.71,61.254,1899.355,57.119,1909.677,55.052L1920,52.985L1920,450L1909.677,450C1899.355,450,1878.71,450,1858.065,450C1837.419,450,1816.774,450,1796.129,450C1775.484,450,1754.839,450,1734.194,450C1713.548,450,1692.903,450,1672.258,450C1651.613,450,1630.968,450,1610.323,450C1589.677,450,1569.032,450,1548.387,450C1527.742,450,1507.097,450,1486.452,450C1465.806,450,1445.161,450,1424.516,450C1403.871,450,1383.226,450,1362.581,450C1341.935,450,1321.29,450,1300.645,450C1280,450,1259.355,450,1238.71,450C1218.065,450,1197.419,450,1176.774,450C1156.129,450,1135.484,450,1114.839,450C1094.194,450,1073.548,450,1052.903,450C1032.258,450,1011.613,450,990.968,450C970.323,450,949.677,450,929.032,450C908.387,450,887.742,450,867.097,450C846.452,450,825.806,450,805.161,450C784.516,450,763.871,450,743.226,450C722.581,450,701.935,450,681.29,450C660.645,450,640,450,619.355,450C598.71,450,578.065,450,557.419,450C536.774,450,516.129,450,495.484,450C474.839,450,454.194,450,433.548,450C412.903,450,392.258,450,371.613,450C350.968,450,330.323,450,309.677,450C289.032,450,268.387,450,247.742,450C227.097,450,206.452,450,185.806,450C165.161,450,144.516,450,123.871,450C103.226,450,82.581,450,61.935,450C41.29,450,20.645,450,10.323,450L0,450Z"></path></g><g transform="translate(0, 720)"><path fill="rgb(36, 71, 43)" fill-opacity="1" d="M0,74.56L10.323,72.324C20.645,70.088,41.29,65.616,61.935,67.698C82.581,69.78,103.226,78.417,123.871,78.673C144.516,78.93,165.161,70.806,185.806,58.459C206.452,46.112,227.097,29.541,247.742,31.443C268.387,33.344,289.032,53.718,309.677,61.773C330.323,69.828,350.968,65.564,371.613,67.519C392.258,69.474,412.903,77.649,433.548,72.933C454.194,68.218,474.839,50.612,495.484,39.883C516.129,29.154,536.774,25.301,557.419,22.691C578.065,20.081,598.71,18.714,619.355,17.691C640,16.667,660.645,15.986,681.29,19.201C701.935,22.416,722.581,29.526,743.226,27.701C763.871,25.876,784.516,15.115,805.161,9.433C825.806,3.751,846.452,3.148,867.097,12.794C887.742,22.44,908.387,42.336,929.032,52.956C949.677,63.576,970.323,64.921,990.968,68.006C1011.613,71.09,1032.258,75.915,1052.903,64.941C1073.548,53.968,1094.194,27.198,1114.839,19.742C1135.484,12.287,1156.129,24.147,1176.774,33.103C1197.419,42.059,1218.065,48.112,1238.71,42.248C1259.355,36.385,1280,18.605,1300.645,20.53C1321.29,22.454,1341.935,44.083,1362.581,48.172C1383.226,52.262,1403.871,38.812,1424.516,40.909C1445.161,43.007,1465.806,60.652,1486.452,69.361C1507.097,78.07,1527.742,77.843,1548.387,66.78C1569.032,55.717,1589.677,33.817,1610.323,22.976C1630.968,12.135,1651.613,12.352,1672.258,15.933C1692.903,19.513,1713.548,26.457,1734.194,30.967C1754.839,35.478,1775.484,37.554,1796.129,33.352C1816.774,29.151,1837.419,18.672,1858.065,25.082C1878.71,31.492,1899.355,54.792,1909.677,66.441L1920,78.091L1920,360L1909.677,360C1899.355,360,1878.71,360,1858.065,360C1837.419,360,1816.774,360,1796.129,360C1775.484,360,1754.839,360,1734.194,360C1713.548,360,1692.903,360,1672.258,360C1651.613,360,1630.968,360,1610.323,360C1589.677,360,1569.032,360,1548.387,360C1527.742,360,1507.097,360,1486.452,360C1465.806,360,1445.161,360,1424.516,360C1403.871,360,1383.226,360,1362.581,360C1341.935,360,1321.29,360,1300.645,360C1280,360,1259.355,360,1238.71,360C1218.065,360,1197.419,360,1176.774,360C1156.129,360,1135.484,360,1114.839,360C1094.194,360,1073.548,360,1052.903,360C1032.258,360,1011.613,360,990.968,360C970.323,360,949.677,360,929.032,360C908.387,360,887.742,360,867.097,360C846.452,360,825.806,360,805.161,360C784.516,360,763.871,360,743.226,360C722.581,360,701.935,360,681.29,360C660.645,360,640,360,619.355,360C598.71,360,578.065,360,557.419,360C536.774,360,516.129,360,495.484,360C474.839,360,454.194,360,433.548,360C412.903,360,392.258,360,371.613,360C350.968,360,330.323,360,309.677,360C289.032,360,268.387,360,247.742,360C227.097,360,206.452,360,185.806,360C165.161,360,144.516,360,123.871,360C103.226,360,82.581,360,61.935,360C41.29,360,20.645,360,10.323,360L0,360Z"></path></g><g transform="translate(0, 810)"><path fill="rgb(35, 59, 40)" fill-opacity="1" d="M0,1.551L10.323,15.888C20.645,30.225,41.29,58.899,61.935,68.437C82.581,77.975,103.226,68.376,123.871,55.617C144.516,42.858,165.161,26.938,185.806,24.7C206.452,22.462,227.097,33.906,247.742,39.339C268.387,44.773,289.032,44.197,309.677,38.921C330.323,33.646,350.968,23.671,371.613,28.324C392.258,32.977,412.903,52.257,433.548,57.118C454.194,61.979,474.839,52.421,495.484,52.023C516.129,51.626,536.774,60.389,557.419,66.93C578.065,73.471,598.71,77.79,619.355,76.589C640,75.388,660.645,68.666,681.29,66.704C701.935,64.742,722.581,67.539,743.226,63.234C763.871,58.928,784.516,47.519,805.161,39.92C825.806,32.32,846.452,28.532,867.097,35.49C887.742,42.449,908.387,60.155,929.032,62.54C949.677,64.926,970.323,51.991,990.968,45.032C1011.613,38.073,1032.258,37.09,1052.903,41.854C1073.548,46.619,1094.194,57.13,1114.839,55.118C1135.484,53.105,1156.129,38.569,1176.774,31.287C1197.419,24.005,1218.065,23.978,1238.71,24.252C1259.355,24.526,1280,25.101,1300.645,29.771C1321.29,34.44,1341.935,43.204,1362.581,47.17C1383.226,51.136,1403.871,50.305,1424.516,47.453C1445.161,44.601,1465.806,39.729,1486.452,32.813C1507.097,25.896,1527.742,16.935,1548.387,22.869C1569.032,28.803,1589.677,49.631,1610.323,49.287C1630.968,48.943,1651.613,27.426,1672.258,22.708C1692.903,17.99,1713.548,30.07,1734.194,40.712C1754.839,51.353,1775.484,60.555,1796.129,63.693C1816.774,66.83,1837.419,63.903,1858.065,64.181C1878.71,64.458,1899.355,67.941,1909.677,69.682L1920,71.423L1920,270L1909.677,270C1899.355,270,1878.71,270,1858.065,270C1837.419,270,1816.774,270,1796.129,270C1775.484,270,1754.839,270,1734.194,270C1713.548,270,1692.903,270,1672.258,270C1651.613,270,1630.968,270,1610.323,270C1589.677,270,1569.032,270,1548.387,270C1527.742,270,1507.097,270,1486.452,270C1465.806,270,1445.161,270,1424.516,270C1403.871,270,1383.226,270,1362.581,270C1341.935,270,1321.29,270,1300.645,270C1280,270,1259.355,270,1238.71,270C1218.065,270,1197.419,270,1176.774,270C1156.129,270,1135.484,270,1114.839,270C1094.194,270,1073.548,270,1052.903,270C1032.258,270,1011.613,270,990.968,270C970.323,270,949.677,270,929.032,270C908.387,270,887.742,270,867.097,270C846.452,270,825.806,270,805.161,270C784.516,270,763.871,270,743.226,270C722.581,270,701.935,270,681.29,270C660.645,270,640,270,619.355,270C598.71,270,578.065,270,557.419,270C536.774,270,516.129,270,495.484,270C474.839,270,454.194,270,433.548,270C412.903,270,392.258,270,371.613,270C350.968,270,330.323,270,309.677,270C289.032,270,268.387,270,247.742,270C227.097,270,206.452,270,185.806,270C165.161,270,144.516,270,123.871,270C103.226,270,82.581,270,61.935,270C41.29,270,20.645,270,10.323,270L0,270Z"></path></g><g transform="translate(0, 900)"><path fill="rgb(33, 46, 36)" fill-opacity="1" d="M0,69.897L10.323,59.052C20.645,48.206,41.29,26.515,61.935,26.691C82.581,26.868,103.226,48.912,123.871,50.358C144.516,51.804,165.161,32.651,185.806,28.569C206.452,24.487,227.097,35.475,247.742,45.776C268.387,56.077,289.032,65.689,309.677,60.49C330.323,55.29,350.968,35.278,371.613,32.505C392.258,29.733,412.903,44.199,433.548,53.046C454.194,61.894,474.839,65.123,495.484,62.068C516.129,59.013,536.774,49.673,557.419,43.609C578.065,37.545,598.71,34.757,619.355,30.41C640,26.064,660.645,20.161,681.29,28.94C701.935,37.719,722.581,61.182,743.226,67.054C763.871,72.927,784.516,61.209,805.161,48.339C825.806,35.47,846.452,21.447,867.097,22.506C887.742,23.565,908.387,39.705,929.032,49.515C949.677,59.326,970.323,62.807,990.968,65.814C1011.613,68.821,1032.258,71.355,1052.903,71.417C1073.548,71.48,1094.194,69.071,1114.839,59.398C1135.484,49.725,1156.129,32.789,1176.774,32.318C1197.419,31.847,1218.065,47.842,1238.71,49.413C1259.355,50.984,1280,38.13,1300.645,32.361C1321.29,26.591,1341.935,27.905,1362.581,30.099C1383.226,32.293,1403.871,35.367,1424.516,43.787C1445.161,52.207,1465.806,65.974,1486.452,67.686C1507.097,69.398,1527.742,59.055,1548.387,47.174C1569.032,35.292,1589.677,21.872,1610.323,26.442C1630.968,31.011,1651.613,53.569,1672.258,54.188C1692.903,54.808,1713.548,33.489,1734.194,31.545C1754.839,29.602,1775.484,47.033,1796.129,59.628C1816.774,72.224,1837.419,79.983,1858.065,80.851C1878.71,81.72,1899.355,75.697,1909.677,72.686L1920,69.675L1920,180L1909.677,180C1899.355,180,1878.71,180,1858.065,180C1837.419,180,1816.774,180,1796.129,180C1775.484,180,1754.839,180,1734.194,180C1713.548,180,1692.903,180,1672.258,180C1651.613,180,1630.968,180,1610.323,180C1589.677,180,1569.032,180,1548.387,180C1527.742,180,1507.097,180,1486.452,180C1465.806,180,1445.161,180,1424.516,180C1403.871,180,1383.226,180,1362.581,180C1341.935,180,1321.29,180,1300.645,180C1280,180,1259.355,180,1238.71,180C1218.065,180,1197.419,180,1176.774,180C1156.129,180,1135.484,180,1114.839,180C1094.194,180,1073.548,180,1052.903,180C1032.258,180,1011.613,180,990.968,180C970.323,180,949.677,180,929.032,180C908.387,180,887.742,180,867.097,180C846.452,180,825.806,180,805.161,180C784.516,180,763.871,180,743.226,180C722.581,180,701.935,180,681.29,180C660.645,180,640,180,619.355,180C598.71,180,578.065,180,557.419,180C536.774,180,516.129,180,495.484,180C474.839,180,454.194,180,433.548,180C412.903,180,392.258,180,371.613,180C350.968,180,330.323,180,309.677,180C289.032,180,268.387,180,247.742,180C227.097,180,206.452,180,185.806,180C165.161,180,144.516,180,123.871,180C103.226,180,82.581,180,61.935,180C41.29,180,20.645,180,10.323,180L0,180Z"></path></g><g transform="translate(0, 990)"><path fill="rgb(32, 32, 32)" fill-opacity="1" d="M0,8.576L10.323,18.275C20.645,27.973,41.29,47.371,61.935,52.235C82.581,57.098,103.226,47.429,123.871,48.605C144.516,49.781,165.161,61.803,185.806,64.423C206.452,67.044,227.097,60.263,247.742,55.871C268.387,51.48,289.032,49.478,309.677,50.104C330.323,50.73,350.968,53.983,371.613,58.924C392.258,63.864,412.903,70.491,433.548,65.92C454.194,61.349,474.839,45.58,495.484,32.771C516.129,19.962,536.774,10.113,557.419,13.116C578.065,16.12,598.71,31.975,619.355,42.426C640,52.877,660.645,57.923,681.29,56.407C701.935,54.891,722.581,46.813,743.226,45.585C763.871,44.357,784.516,49.978,805.161,50.766C825.806,51.554,846.452,47.508,867.097,44.097C887.742,40.686,908.387,37.909,929.032,44.226C949.677,50.543,970.323,65.955,990.968,72.825C1011.613,79.694,1032.258,78.021,1052.903,71.205C1073.548,64.389,1094.194,52.43,1114.839,51.919C1135.484,51.407,1156.129,62.343,1176.774,55.889C1197.419,49.434,1218.065,25.59,1238.71,15.833C1259.355,6.077,1280,10.407,1300.645,19.992C1321.29,29.577,1341.935,44.417,1362.581,55.517C1383.226,66.617,1403.871,73.976,1424.516,76.407C1445.161,78.838,1465.806,76.339,1486.452,68.08C1507.097,59.821,1527.742,45.8,1548.387,41.025C1569.032,36.249,1589.677,40.718,1610.323,48.897C1630.968,57.077,1651.613,68.968,1672.258,69.981C1692.903,70.994,1713.548,61.129,1734.194,48.201C1754.839,35.272,1775.484,19.28,1796.129,13.042C1816.774,6.804,1837.419,10.32,1858.065,21.276C1878.71,32.231,1899.355,50.627,1909.677,59.824L1920,69.022L1920,90L1909.677,90C1899.355,90,1878.71,90,1858.065,90C1837.419,90,1816.774,90,1796.129,90C1775.484,90,1754.839,90,1734.194,90C1713.548,90,1692.903,90,1672.258,90C1651.613,90,1630.968,90,1610.323,90C1589.677,90,1569.032,90,1548.387,90C1527.742,90,1507.097,90,1486.452,90C1465.806,90,1445.161,90,1424.516,90C1403.871,90,1383.226,90,1362.581,90C1341.935,90,1321.29,90,1300.645,90C1280,90,1259.355,90,1238.71,90C1218.065,90,1197.419,90,1176.774,90C1156.129,90,1135.484,90,1114.839,90C1094.194,90,1073.548,90,1052.903,90C1032.258,90,1011.613,90,990.968,90C970.323,90,949.677,90,929.032,90C908.387,90,887.742,90,867.097,90C846.452,90,825.806,90,805.161,90C784.516,90,763.871,90,743.226,90C722.581,90,701.935,90,681.29,90C660.645,90,640,90,619.355,90C598.71,90,578.065,90,557.419,90C536.774,90,516.129,90,495.484,90C474.839,90,454.194,90,433.548,90C412.903,90,392.258,90,371.613,90C350.968,90,330.323,90,309.677,90C289.032,90,268.387,90,247.742,90C227.097,90,206.452,90,185.806,90C165.161,90,144.516,90,123.871,90C103.226,90,82.581,90,61.935,90C41.29,90,20.645,90,10.323,90L0,90Z"></path></g></g></svg>